<?xml version="1.0" encoding="utf-8"?>
<!-- Generator: Adobe Illustrator 15.0.2, SVG Export Plug-In . SVG Version: 6.00 Build 0)  -->
<!DOCTYPE svg PUBLIC "-//W3C//DTD SVG 1.1//EN" "http://www.w3.org/Graphics/SVG/1.1/DTD/svg11.dtd">
<svg version="1.1" id="Layer_1" xmlns="http://www.w3.org/2000/svg" xmlns:xlink="http://www.w3.org/1999/xlink" x="0px" y="0px"
	 width="185.887px" height="91.266px" viewBox="0 0 185.887 91.266" enable-background="new 0 0 185.887 91.266"
	 xml:space="preserve">
<path fill="#FFFFFF" d="M185.509,39.63v-10.98h-44.187V66.58c-1.761-8.017-8.646-10.896-16.066-12.71l-15.369-3.778
	c-2.635-0.614-6.674-1.669-6.674-6.587c0-5.709,5.972-7.553,10.979-7.553c11.503,0,12.558,6.675,12.906,9.485h12.646
	c-0.088-7.729-5.271-20.375-24.591-20.375c-20.192,0-24.134,12.056-24.233,19.125c-1.893,6.61-6.692,10.13-13.367,10.13
	c-10.982,0-15.391-10.03-15.391-21.188c0-17.553,9.165-21.702,15.391-21.702c10.723,0,12.712,7.005,13.749,10.724h12.973
	c-0.69-9.167-8.217-21.964-26.808-21.964c-13.135,0-23.931,7.468-27.376,22.15V1.466H36.755v41.232
	c0,7.581-3.661,11.938-12.64,11.938c-6.101,0-11.157-3.834-11.157-12.55V1.464H-0.379v41.493c0.174,6.276,1.482,11.33,4.882,15.167
	c5.579,6.188,14.123,7.582,19.875,7.582c15.312,0,25.123-6.653,25.687-22.105c3.325,14.475,13.71,21.953,27.23,21.953
	c8.715,0,14.988-2.942,19.279-7.9c3.779,2.88,9.021,4.104,14.365,5.348l6.764,1.579c6.674,1.581,11.416,2.898,11.416,7.817
	c0,6.675-6.938,8.165-13.172,8.165c-11.504,0-13.264-6.674-13.352-10.188H89.95c0,7.815,3.951,21.076,26.963,21.076
	c5.039,0,21.51-1.389,24.408-15.97v15.922h12.971V64.62h27.326V53.637h-27.326V39.63H185.509z"/>
</svg>
